<svg width="120" height="60" viewBox="0 0 120 60" fill="none" xmlns="http://www.w3.org/2000/svg">
  <!-- Background Circle -->
  <circle cx="30" cy="30" r="25" fill="url(#gradient1)" stroke="#1976d2" stroke-width="2"/>
  
  <!-- Brain/Psychology Symbol -->
  <path d="M20 25c0-5.5 4.5-10 10-10s10 4.5 10 10c0 2-0.5 3.8-1.5 5.5" stroke="white" stroke-width="2" fill="none"/>
  <path d="M22 30c2-1 4-1.5 6-1.5s4 0.5 6 1.5" stroke="white" stroke-width="2" fill="none"/>
  <circle cx="25" cy="27" r="1.5" fill="white"/>
  <circle cx="35" cy="27" r="1.5" fill="white"/>
  <path d="M27 32c1 1 2 1.5 3 1.5s2-0.5 3-1.5" stroke="white" stroke-width="2" fill="none"/>
  
  <!-- Text -->
  <text x="60" y="25" font-family="Arial, sans-serif" font-size="16" font-weight="bold" fill="#1976d2">Gestão</text>
  <text x="60" y="42" font-family="Arial, sans-serif" font-size="14" fill="#666">Psicológica</text>
  
  <!-- Gradient Definition -->
  <defs>
    <linearGradient id="gradient1" x1="0%" y1="0%" x2="100%" y2="100%">
      <stop offset="0%" style="stop-color:#1976d2;stop-opacity:1" />
      <stop offset="100%" style="stop-color:#42a5f5;stop-opacity:1" />
    </linearGradient>
  </defs>
</svg>